# xmcd CD database file
#
# Track frame offsets:
#	182
#	17712
#	37040
#
# Disc length: 912 seconds
#
# Revision: 0
# Processed by: cddbd v1.5.1PL0 Copyright (c) Steve Scherf et al.
# Submitted via: CDex 1.51
#
DISCID=1d038e03
DTITLE=Kenny Wayne Shepherd - Aberdeen. Ledbetter Heights Promotion
DYEAR=1996
DGENRE=Blues
TTITLE0=Aberdeen (Radio Edit)
TTITLE1=Aberdeen (Album Version)
TTITLE2=Deja Woodoo (Live)
EXTD=YEAR: 1996
EXTT0=
EXTT1=
EXTT2=
PLAYORDER=
